<svg xmlns="http://www.w3.org/2000/svg" width="14" height="14" viewBox="0 0 14 14">
  <defs>
    <style>
      .cls-1 {
        fill-rule: evenodd;
        opacity: 0.3;
      }
    </style>
  </defs>
  <path id="close" class="cls-1" d="M1.485,0.28a0.232,0.232,0,0,0-.192.063l-0.951.951A0.3,0.3,0,0,0,.393,1.7L5.753,7.06l-5.3,5.294a0.3,0.3,0,0,0-.052.409l0.889,0.888a0.3,0.3,0,0,0,.41-0.038L7,8.319l5.267,5.264a0.3,0.3,0,0,0,.41.038l0.952-.95a0.3,0.3,0,0,0-.052-0.409L8.31,7l5.3-5.295a0.3,0.3,0,0,0,.052-0.409L12.77,0.406a6.255,6.255,0,0,0-1.41,1.051l-4.3,4.3L1.7,0.395A0.385,0.385,0,0,0,1.485.28Z"/>
</svg>
