<svg xmlns="http://www.w3.org/2000/svg" xmlns:xlink="http://www.w3.org/1999/xlink" preserveAspectRatio="xMidYMid" width="14.81" height="18.375" viewBox="0 0 14.81 18.375">
  <defs>
    <style>
      .cls-1 {
        fill: #d7dde1;
        fill-rule: evenodd;
      }
    </style>
  </defs>
  <path d="M14.176,5.314 L13.416,5.337 L13.416,16.250 C13.416,17.423 12.461,18.377 11.289,18.377 L3.443,18.377 C2.270,18.377 1.316,17.423 1.316,16.250 L1.316,5.337 L0.627,5.314 C0.284,5.314 0.006,5.036 0.006,4.694 L0.006,3.920 C0.006,3.577 0.284,3.300 0.627,3.300 L4.136,3.301 C4.136,1.478 5.620,-0.005 7.443,-0.005 C9.266,-0.005 10.750,1.478 10.750,3.301 L14.176,3.300 C14.518,3.300 14.796,3.577 14.796,3.920 L14.796,4.694 C14.796,5.036 14.518,5.314 14.176,5.314 ZM7.443,1.648 C6.530,1.648 5.790,2.388 5.790,3.301 L9.096,3.301 C9.096,2.388 8.356,1.648 7.443,1.648 ZM12.193,5.314 L2.537,5.314 L2.537,16.587 C2.537,16.930 2.815,17.207 3.158,17.207 L11.573,17.207 C11.915,17.207 12.193,16.930 12.193,16.587 L12.193,5.314 ZM9.177,15.345 L8.866,15.345 C8.524,15.345 8.246,15.068 8.246,14.725 L8.246,7.958 C8.246,7.616 8.524,7.338 8.866,7.338 L9.177,7.338 C9.519,7.338 9.797,7.616 9.797,7.958 L9.797,14.725 C9.797,15.068 9.519,15.345 9.177,15.345 ZM5.864,15.345 L5.554,15.345 C5.211,15.345 4.934,15.068 4.934,14.725 L4.934,7.958 C4.934,7.616 5.211,7.338 5.554,7.338 L5.864,7.338 C6.206,7.338 6.484,7.616 6.484,7.958 L6.484,14.725 C6.484,15.068 6.206,15.345 5.864,15.345 Z" class="cls-1"/>
</svg>
