<svg xmlns="http://www.w3.org/2000/svg" xmlns:xlink="http://www.w3.org/1999/xlink" preserveAspectRatio="xMidYMid" width="18.625" height="17.062" viewBox="0 0 18.625 17.062">
  <defs>
    <style>
      .cls-1 {
        fill: #07ba80;
        fill-rule: evenodd;
      }
    </style>
  </defs>
  <path d="M9.945,17.072 C8.211,17.072 6.507,16.552 5.075,15.599 L-0.011,16.716 L1.652,11.412 C1.316,10.489 1.259,9.522 1.259,8.529 C1.257,3.818 5.155,-0.015 9.945,-0.015 C14.735,-0.015 18.633,3.818 18.633,8.529 C18.633,13.239 14.735,17.072 9.945,17.072 ZM9.949,0.943 C5.689,0.943 2.235,4.339 2.235,8.529 C2.235,9.575 2.336,10.572 2.726,11.479 L1.200,15.524 L5.123,14.442 C6.445,15.486 8.121,16.114 9.949,16.114 C14.210,16.114 17.663,12.718 17.663,8.529 C17.663,4.340 14.210,0.943 9.949,0.943 ZM13.566,9.473 C13.035,9.473 12.605,9.050 12.605,8.528 C12.605,8.006 13.035,7.583 13.566,7.583 C14.097,7.583 14.527,8.006 14.527,8.528 C14.527,9.050 14.097,9.473 13.566,9.473 ZM10.017,9.473 C9.486,9.473 9.056,9.050 9.056,8.528 C9.056,8.006 9.486,7.583 10.017,7.583 C10.548,7.583 10.978,8.006 10.978,8.528 C10.978,9.050 10.548,9.473 10.017,9.473 ZM6.355,9.473 C5.824,9.473 5.394,9.050 5.394,8.528 C5.394,8.006 5.824,7.583 6.355,7.583 C6.886,7.583 7.316,8.006 7.316,8.528 C7.316,9.050 6.886,9.473 6.355,9.473 Z" class="cls-1"/>
</svg>
