<svg xmlns="http://www.w3.org/2000/svg" width="14" height="6" viewBox="0 0 14 6">
  <defs>
    <style>
      .cls-1 {
        fill: #9484b5;
        fill-rule: evenodd;
      }
    </style>
  </defs>
  <path id="Shape_21_copy_2" data-name="Shape 21 copy 2" class="cls-1" d="M3.4,5.789a0.609,0.609,0,0,1-.428-0.17L0.462,3.469A0.632,0.632,0,0,1,.453,2.556l2.5-2.223a0.631,0.631,0,0,1,.88.905L1.807,3,3.823,4.7A0.629,0.629,0,0,1,3.4,5.789Z"/>
  <path id="Shape_21_copy" data-name="Shape 21 copy" class="cls-1" d="M10.511,5.789a0.609,0.609,0,0,0,.428-0.17l2.506-2.15a0.632,0.632,0,0,0,.008-0.914l-2.5-2.223a0.631,0.631,0,1,0-.88.905L12.1,3,10.083,4.7A0.629,0.629,0,0,0,10.511,5.789Z"/>
</svg>
