<svg xmlns="http://www.w3.org/2000/svg" width="50" height="46" viewBox="0 0 50 46">
  <defs>
    <style>
      .cls-1 {
        fill: #3499e4;
        fill-rule: evenodd;
      }
    </style>
  </defs>
  <path id="mail" class="cls-1" d="M1.266,11.988a1.014,1.014,0,0,0-1,1.028,0.9,0.9,0,0,0,1,.885h9.7a0.9,0.9,0,0,0,1-.885,1.014,1.014,0,0,0-1-1.028h-9.7Zm3.344,4a0.9,0.9,0,0,0-1,.886,1.015,1.015,0,0,0,1,1.028h6.354a1.014,1.014,0,0,0,1-1.028,0.9,0.9,0,0,0-1-.886H4.61Zm3.344,4a0.9,0.9,0,0,0-1,.887,1.015,1.015,0,0,0,1,1.028h3.01a1.014,1.014,0,0,0,1-1.028,0.9,0.9,0,0,0-1-.887H7.954Zm12.5-6.228a0.85,0.85,0,0,0-1.225.27,0.836,0.836,0,0,0,.309,1.172L31.14,22.946a1.353,1.353,0,0,0,1.226,0l11.3-7.745a0.837,0.837,0,0,0,.308-1.172,0.85,0.85,0,0,0-1.225-.27l-11,7.542Zm25.111-2.711a2.542,2.542,0,0,1,2.423,2.229V30.591a2.789,2.789,0,0,1-2.257,2.314H18.151a2.6,2.6,0,0,1-2.173-2.228v-17.4c-0.167-.943,1.5-2.486,2.34-2.229H45.562ZM45.9,8.992H17.985a4.756,4.756,0,0,0-4.013,3.942V31.019c0,1.629,2.34,4.029,3.929,3.944H45.979c1.755,0,3.928-2.228,4.012-4.114V13.02A4.592,4.592,0,0,0,45.9,8.992Z"/>
</svg>
