<svg xmlns="http://www.w3.org/2000/svg" width="50" height="46" viewBox="0 0 50 46">
  <defs>
    <style>
      .cls-1 {
        fill: #ff415c;
        fill-rule: evenodd;
      }
    </style>
  </defs>
  <path id="save" class="cls-1" d="M34.192,10.686a13.348,13.348,0,0,0-3.977,1.143C27.359,8.578,23.337,5.986,19,5.986a15.1,15.1,0,0,0,0,30.208h2.58l-0.427-2.15H18.294c-7.13,0-12.43-5.859-12.43-13.059s5.3-13.056,12.43-13.056a12.792,12.792,0,0,1,10.342,5.256l0.895,1.207,1.363-.612a10.331,10.331,0,0,1,4.242-.916c5.779,0,9.986,4.75,9.986,10.589s-4.207,10.588-9.986,10.588H31.459l-0.585,2.067H34.19A12.712,12.712,0,1,0,34.192,10.686ZM30.449,39.632l-3.427,3.1V26.316H24.976V42.561l-3.019-3.144-1.723.993,5.819,5.319,5.98-5.045Z"/>
</svg>
