<svg xmlns="http://www.w3.org/2000/svg" width="50" height="46" viewBox="0 0 50 46">
  <defs>
    <style>
      .cls-1 {
        fill: #21d59a;
        fill-rule: evenodd;
      }
    </style>
  </defs>
  <path id="print" class="cls-1" d="M40.307,11.068H37.062V2.011a2.025,2.025,0,0,0-2.033-2.02H14.976a2.025,2.025,0,0,0-2.033,2.02v9H9.787A3.686,3.686,0,0,0,6.1,14.682V28.328A3.686,3.686,0,0,0,9.787,32h3.281v6.9a2.082,2.082,0,0,0,2.086,2.073h19.7A2.082,2.082,0,0,0,36.936,38.9V32h3.371A3.686,3.686,0,0,0,44,28.328V14.682A3.641,3.641,0,0,0,40.307,11.068Zm-25.385-.106V2.011a0.052,0.052,0,0,1,.053-0.053H35.029a0.052,0.052,0,0,1,.053.053v8.95a0.052,0.052,0,0,1-.053.053H14.976C14.976,11.068,14.922,11.015,14.922,10.962ZM34.957,38.842a0.115,0.115,0,0,1-.107.106h-19.7a0.115,0.115,0,0,1-.107-0.106v-11.7a0.115,0.115,0,0,1,.107-0.106h19.7a0.115,0.115,0,0,1,.107.106v11.7Zm7.062-10.514a1.684,1.684,0,0,1-1.712,1.7H36.936V27.146a2.082,2.082,0,0,0-2.086-2.073h-19.7a2.082,2.082,0,0,0-2.086,2.073v2.883H9.787a1.684,1.684,0,0,1-1.712-1.7V14.682a1.684,1.684,0,0,1,1.712-1.7H40.307a1.684,1.684,0,0,1,1.712,1.7V28.328ZM38.97,16.967A1.07,1.07,0,1,1,37.9,15.9,1.069,1.069,0,0,1,38.97,16.967Zm-3.958,0a1.07,1.07,0,1,1-1.07-1.063A1.069,1.069,0,0,1,35.012,16.967Z"/>
</svg>
