<svg xmlns="http://www.w3.org/2000/svg" width="14" height="14" viewBox="0 0 14 14"><defs><style>.cls-1 { fill-rule: evenodd; opacity: 0.3; }</style></defs><path id="close" class="cls-1" d="M1.485.28a.232.232 0 0 0-.192.063l-.95.95a.3.3 0 0 0 .05.407l5.36 5.36-5.3 5.294a.3.3 0 0 0-.052.41l.89.887a.3.3 0 0 0 .41-.037L7 8.32l5.267 5.263a.3.3 0 0 0 .41.038l.952-.95a.3.3 0 0 0-.053-.408L8.31 7l5.3-5.295a.3.3 0 0 0 .052-.41l-.892-.89a6.255 6.255 0 0 0-1.41 1.052l-4.3 4.3L1.7.395A.385.385 0 0 0 1.485.28z"/></svg>