<svg xmlns="http://www.w3.org/2000/svg" preserveAspectRatio="xMidYMid" width="14.81" height="18.375" viewBox="0 0 14.81 18.375"><defs><style>.cls-1 { fill: #d7dde1; fill-rule: evenodd; }</style></defs><path d="M14.176 5.314l-.76.023V16.25c0 1.173-.955 2.127-2.127 2.127H3.442c-1.173 0-2.127-.954-2.127-2.127V5.337l-.69-.023c-.342 0-.62-.278-.62-.62V3.92c0-.343.278-.62.62-.62h3.51c0-1.822 1.484-3.305 3.307-3.305S10.75 1.478 10.75 3.3h3.426c.342 0 .62.277.62.62v.774c0 .342-.278.62-.62.62zM7.443 1.648c-.913 0-1.653.74-1.653 1.653h3.306c0-.912-.74-1.652-1.653-1.652zm4.75 3.666H2.537v11.273c0 .343.278.62.62.62h8.416c.342 0 .62-.277.62-.62V5.314zm-3.016 10.03h-.31c-.343 0-.62-.276-.62-.62V7.96c0-.342.277-.62.62-.62h.31c.342 0 .62.278.62.62v6.767c0 .343-.278.62-.62.62zm-3.313 0h-.31c-.343 0-.62-.276-.62-.62V7.96c0-.342.277-.62.62-.62h.31c.342 0 .62.278.62.62v6.767c0 .343-.278.62-.62.62z" class="cls-1"/></svg>