<svg xmlns="http://www.w3.org/2000/svg" preserveAspectRatio="xMidYMid" width="18.625" height="17.062" viewBox="0 0 18.625 17.062"><defs><style>.cls-1 { fill: #07ba80; fill-rule: evenodd; }</style></defs><path d="M9.945 17.072c-1.734 0-3.438-.52-4.87-1.473L-.01 16.715l1.662-5.304c-.336-.923-.393-1.89-.393-2.883C1.256 3.817 5.154-.016 9.944-.016c4.79 0 8.688 3.833 8.688 8.544 0 4.71-3.898 8.542-8.688 8.542zM9.95.942C5.69.943 2.234 4.34 2.234 8.53c0 1.045.1 2.042.49 2.95L1.2 15.523l3.923-1.082c1.322 1.044 2.998 1.672 4.826 1.672 4.26 0 7.713-3.396 7.713-7.585 0-4.19-3.453-7.587-7.714-7.587zm3.616 8.53c-.53 0-.96-.422-.96-.944s.43-.945.96-.945.96.423.96.945-.43.945-.96.945zm-3.55 0c-.53 0-.96-.422-.96-.944s.43-.945.96-.945c.532 0 .962.423.962.945s-.43.945-.96.945zm-3.66 0c-.532 0-.962-.422-.962-.944s.43-.945.96-.945c.532 0 .962.423.962.945s-.43.945-.96.945z" class="cls-1"/></svg>