<svg xmlns="http://www.w3.org/2000/svg" width="14" height="6" viewBox="0 0 14 6"><defs><style>.cls-1 { fill: #9484b5; fill-rule: evenodd; }</style></defs><path id="Shape_21_copy_2" data-name="Shape 21 copy 2" class="cls-1" d="M3.4 5.79a.61.61 0 0 1-.428-.17L.462 3.47a.632.632 0 0 1-.01-.914l2.5-2.223a.63.63 0 0 1 .88.905L1.808 3l2.016 1.7A.63.63 0 0 1 3.4 5.79z"/><path id="Shape_21_copy" data-name="Shape 21 copy" class="cls-1" d="M10.51 5.79a.61.61 0 0 0 .43-.17l2.505-2.15a.632.632 0 0 0 .008-.915l-2.5-2.223a.63.63 0 1 0-.88.905L12.1 3l-2.017 1.7a.63.63 0 0 0 .428 1.09z"/></svg>