<svg xmlns="http://www.w3.org/2000/svg" width="50" height="46" viewBox="0 0 50 46"><defs><style>.cls-1 { fill: #3499e4; fill-rule: evenodd; }</style></defs><path id="mail" class="cls-1" d="M1.266 11.988a1.014 1.014 0 0 0-1 1.028.9.9 0 0 0 1 .885h9.7a.9.9 0 0 0 1-.884 1.014 1.014 0 0 0-1-1.028h-9.7zm3.344 4a.9.9 0 0 0-1 .886 1.015 1.015 0 0 0 1 1.028h6.354a1.014 1.014 0 0 0 1-1.028.9.9 0 0 0-1-.886H4.61zm3.344 4a.9.9 0 0 0-1 .887 1.015 1.015 0 0 0 1 1.028h3.01a1.014 1.014 0 0 0 1-1.028.9.9 0 0 0-1-.887h-3.01zm12.5-6.228a.85.85 0 0 0-1.225.27.836.836 0 0 0 .308 1.172l11.602 7.744a1.353 1.353 0 0 0 1.226 0l11.3-7.745a.837.837 0 0 0 .308-1.17.85.85 0 0 0-1.225-.27l-11 7.54zm25.11-2.71a2.542 2.542 0 0 1 2.424 2.228V30.59a2.79 2.79 0 0 1-2.257 2.315H18.15a2.6 2.6 0 0 1-2.172-2.228v-17.4c-.167-.943 1.5-2.486 2.34-2.23h27.244zM45.9 8.99H17.985a4.756 4.756 0 0 0-4.013 3.942V31.02c0 1.628 2.34 4.028 3.93 3.943h28.077c1.754 0 3.927-2.228 4.01-4.114V13.02a4.592 4.592 0 0 0-4.09-4.028z"/></svg>