<svg xmlns="http://www.w3.org/2000/svg" width="50" height="46" viewBox="0 0 50 46"><defs><style>.cls-1 { fill: #ff415c; fill-rule: evenodd; }</style></defs><path id="save" class="cls-1" d="M34.192 10.686a13.348 13.348 0 0 0-3.977 1.143C27.36 8.577 23.337 5.985 19 5.985a15.1 15.1 0 0 0 0 30.208h2.58l-.427-2.15h-2.86c-7.13 0-12.43-5.86-12.43-13.06s5.3-13.055 12.43-13.055a12.792 12.792 0 0 1 10.343 5.255l.895 1.207 1.364-.612a10.33 10.33 0 0 1 4.242-.916c5.78 0 9.986 4.75 9.986 10.59S40.915 34.04 35.136 34.04H31.46l-.586 2.068h3.316a12.712 12.712 0 1 0 .002-25.422zM30.45 39.632l-3.428 3.1V26.316h-2.046V42.56l-3.02-3.143-1.722.993 5.82 5.32 5.98-5.046z"/></svg>