<svg xmlns="http://www.w3.org/2000/svg" width="50" height="46" viewBox="0 0 50 46"><defs><style>.cls-1 { fill: #21d59a; fill-rule: evenodd; }</style></defs><path id="print" class="cls-1" d="M40.307 11.068h-3.245V2.01A2.025 2.025 0 0 0 35.03-.01H14.975a2.025 2.025 0 0 0-2.033 2.02v9H9.787A3.686 3.686 0 0 0 6.1 14.683v13.646A3.686 3.686 0 0 0 9.787 32h3.28v6.9a2.082 2.082 0 0 0 2.087 2.073h19.7a2.082 2.082 0 0 0 2.082-2.073V32h3.37A3.686 3.686 0 0 0 44 28.328V14.682a3.64 3.64 0 0 0-3.693-3.614zm-25.385-.106v-8.95a.052.052 0 0 1 .053-.054H35.03a.052.052 0 0 1 .052.053v8.95a.052.052 0 0 1-.053.054H14.975c0 .054-.054 0-.054-.052zm20.035 27.88a.115.115 0 0 1-.107.106h-19.7a.115.115 0 0 1-.107-.106v-11.7a.115.115 0 0 1 .107-.106h19.7a.115.115 0 0 1 .107.106v11.7zm7.062-10.514a1.684 1.684 0 0 1-1.713 1.7h-3.37v-2.882a2.082 2.082 0 0 0-2.087-2.073h-19.7a2.082 2.082 0 0 0-2.086 2.073v2.883H9.787a1.684 1.684 0 0 1-1.712-1.7V14.68a1.684 1.684 0 0 1 1.712-1.7h30.52a1.684 1.684 0 0 1 1.712 1.7v13.646zm-3.05-11.36A1.07 1.07 0 1 1 37.9 15.9a1.07 1.07 0 0 1 1.07 1.067zm-3.958 0a1.07 1.07 0 1 1-1.07-1.064 1.07 1.07 0 0 1 1.07 1.063z"/></svg>